<?xml version="1.0" ?><!DOCTYPE svg  PUBLIC '-//W3C//DTD SVG 1.1//EN'  'http://www.w3.org/Graphics/SVG/1.1/DTD/svg11.dtd'><svg height="512px" style="enable-background:new 0 0 512 512;" version="1.1" viewBox="0 0 512 512" width="512px" xml:space="preserve" xmlns="http://www.w3.org/2000/svg" xmlns:xlink="http://www.w3.org/1999/xlink"><g id="C_-_5_x2C__creditcard_x2C__Banking_x2C__card_x2C__cards_x2C__credit_x2C__finance_x2C__money_x2C__shopping"><g><path d="M45.154,447.424h421.693V286.97H45.154V447.424z M363.762,349.102    c6.461,0,12.711,1.957,17.964,5.571c5.251-3.614,11.499-5.571,17.962-5.571c17.438,0,31.627,14.133,31.627,31.505    c0,17.367-14.189,31.497-31.627,31.497c-6.461,0-12.71-1.957-17.962-5.571c-5.255,3.614-11.505,5.571-17.964,5.571    c-17.437,0-31.623-14.13-31.623-31.497C332.139,363.234,346.325,349.102,363.762,349.102z M163.228,322.29h92.77    c2.588,0,4.686,2.098,4.686,4.686s-2.098,4.686-4.686,4.686h-92.77c-2.587,0-4.686-2.098-4.686-4.686    S160.641,322.29,163.228,322.29z M85.371,322.29h44.902c2.587,0,4.686,2.098,4.686,4.686s-2.098,4.686-4.686,4.686H85.371    c-2.587,0-4.686-2.098-4.686-4.686S82.784,322.29,85.371,322.29z M85.371,353.787h206.551c2.588,0,4.686,2.098,4.686,4.686    s-2.098,4.686-4.686,4.686H85.371c-2.587,0-4.686-2.098-4.686-4.686S82.784,353.787,85.371,353.787z" style="fill-rule:evenodd;clip-rule:evenodd;"/><path d="M269.021,152.455l167.729,0.007L116.534,64.577l-24.961,87.885    l91.311,0.001C212.95,152.457,240.971,152.455,269.021,152.455z" style="fill-rule:evenodd;clip-rule:evenodd;"/><path d="M45.154,224.412v53.187h421.693v-53.193l-224.985-0.003    C184.687,224.402,124.901,224.405,45.154,224.412z" style="fill-rule:evenodd;clip-rule:evenodd;"/><path d="M363.762,402.732c5.49,0,10.764-2.004,14.848-5.644    c0.889-0.792,2.002-1.187,3.117-1.187c1.114,0,2.23,0.396,3.117,1.188c4.081,3.638,9.353,5.642,14.844,5.642    c12.271,0,22.256-9.926,22.256-22.126c0-12.204-9.984-22.134-22.256-22.134c-5.493,0-10.764,2.004-14.842,5.642    c-1.777,1.585-4.459,1.585-6.237,0.001c-4.082-3.639-9.354-5.643-14.847-5.643c-12.27,0-22.252,9.93-22.252,22.134    C341.51,392.807,351.492,402.732,363.762,402.732z" style="fill-rule:evenodd;clip-rule:evenodd;"/><path d="M466.313,161.834l-282.86,0c-40.641,0.007-85.008,0.022-138.298,0.049    v53.158c79.739-0.007,139.537-0.01,196.708-0.01l224.985,0.004v-53.201H466.313z M112.313,197.153H94.349v-17.876h17.964V197.153z     M148.233,197.153h-17.96v-17.876h17.96V197.153z M184.157,197.153h-17.963v-17.876h17.963V197.153z M220.078,197.153h-17.961    v-17.876h17.961V197.153z" style="fill-rule:evenodd;clip-rule:evenodd;"/></g></g><g id="Layer_1"/></svg>