<?xml version="1.0" ?><svg data-name="Layer 1" id="Layer_1" viewBox="0 0 64 64" xmlns="http://www.w3.org/2000/svg"><path d="M39.78,31.29l13.44-13.44c.94-.94,1.46-2.2,1.46-3.54s-.52-2.59-1.46-3.54c-.94-.94-2.2-1.46-3.54-1.46s-2.59,.52-3.54,1.46l-13.44,13.44L15.74,7.25c-.38-.38-1.04-.38-1.41,0l-7.07,7.07c-.39,.39-.39,1.02,0,1.41l16.97,16.97-9.19,9.19c-.09,.09-.16,.2-.21,.31l-4.24,9.9c-.16,.38-.08,.81,.21,1.1,.19,.19,.45,.29,.71,.29,.13,0,.27-.03,.39-.08l9.9-4.24c.12-.05,.22-.12,.31-.21l9.19-9.19,16.97,16.97c.19,.19,.44,.29,.71,.29s.52-.11,.71-.29l7.07-7.07c.39-.39,.39-1.02,0-1.41l-16.97-16.97Zm7.78-19.09c1.13-1.13,3.11-1.13,4.24,0,.57,.57,.88,1.32,.88,2.12s-.31,1.55-.88,2.12l-.71,.71-4.24-4.24,.71-.71ZM23.52,29.17l2.12-2.12-1.41-1.41-2.12,2.12-1.41-1.41,2.12-2.12-1.41-1.41-2.12,2.12-1.41-1.41,2.12-2.12-1.41-1.41-2.12,2.12-1.41-1.41,2.12-2.12-1.41-1.41-2.12,2.12-1.41-1.41,2.12-2.12-1.41-1.41-2.12,2.12-1.41-1.41,5.66-5.66L31.29,25.64l-5.66,5.66-2.12-2.12Zm21.92-14.85l1.41,1.41-28.28,28.28-1.41-1.41L45.44,14.32ZM13.4,50.6l2.68-6.24,3.57,3.57-6.24,2.68Zm8-3.75l-1.41-1.41,28.28-28.28,1.41,1.41-28.28,28.28Zm27.58,7.78l-2.83-2.83,2.12-2.12-1.41-1.41-2.12,2.12-1.41-1.41,2.12-2.12-1.41-1.41-2.12,2.12-1.41-1.41,2.12-2.12-1.41-1.41-2.12,2.12-1.41-1.41,2.12-2.12-1.41-1.41-2.12,2.12-1.41-1.41,2.12-2.12-1.41-1.41-2.12,2.12-.71-.71,5.66-5.66,16.26,16.26-5.66,5.66Z"/></svg>